# xmcd
#
# Track frame offsets:
#	150
#	13274
#	29528
#	44242
#	53689
#	65080
#	78795
#	91453
#	102284
#	111970
#	124046
#	137985
#
# Disc length: 2112 seconds
# Revision: 0
# Processed by: cddbd v1.5.2PL0 Copyright (c) Steve Scherf et al.
# Submitted via: dBpowerAMP V12.0
#
DISCID=ab083e0c
DTITLE=The Garrett Newton Band - Young Heart Old Soul
DYEAR=2017
DGENRE=Country
TTITLE0=Ain't Nobody Gonna Miss Me
TTITLE1=Country Poor and Country Proud
TTITLE2=Young Heart Old Soul
TTITLE3=Farewell Blues
TTITLE4=Sing a Bluegrass Song
TTITLE5=Old Camp Meeting Time
TTITLE6=Bells of Saint Mary
TTITLE7=Last Hanging of Wise County
TTITLE8=I Ain't Broke (But I'm Badly Bent)
TTITLE9=Redwood Hill
TTITLE10=Remington Ride
TTITLE11=Take This Hammer
EXTD=
EXTT0=
EXTT1=
EXTT2=
EXTT3=
EXTT4=
EXTT5=
EXTT6=
EXTT7=
EXTT8=
EXTT9=
EXTT10=
EXTT11=
PLAYORDER=
